<?xml version="1.0" encoding="utf-8"?>
<!-- Generator: Adobe Illustrator 21.1.0, SVG Export Plug-In . SVG Version: 6.00 Build 0)  -->
<svg version="1.1" id="レイヤー_1" xmlns="http://www.w3.org/2000/svg" xmlns:xlink="http://www.w3.org/1999/xlink" x="0px"
	 y="0px" viewBox="0 0 1000 1000" style="enable-background:new 0 0 1000 1000;" xml:space="preserve">
<path d="M640,601L640,601c-12-5-24-10-36-15c-15-6-29-12-44-18c18-14,36-33,45-57c7,21,27,39,54,44c29,6,66-3,84-45c1-1,1-3,0-3
	c-1-1-2-2-3-2c-35,0-47-48-60-105c-13-55-27-118-71-139c-28-13-64-8-109,14c-46-22-82-27-109-14c-45,21-59,84-72,139
	c-13,57-24,105-60,105c-1,0-2,1-3,2c0,0,0,2,0,3c15,35,43,47,68,47c6,0,11-1,16-2c27-5,48-23,54-43c10,24,27,42,45,56
	c-14,6-28,12-42,17c-82,34-152,63-151,131l-1,36h509v-38C754,658,704,629,640,601z M339,548c-25,6-57-2-74-36c36-5,48-56,61-110
	c12-54,26-115,68-135c25-12,60-7,104,15c1,1,2,1,3,0c45-22,79-27,105-15c41,20,55,81,68,135c12,54,24,105,61,110c-17,34-50,42-75,37
	c-25-6-50-25-50-52l0,0c1-2,1-5,2-7c17-2,25-20,25-36c0-17-8-35-25-36l-11-42c0-1-1-2-3-2c-69,0-82-21-90-34c-2-4-4-6-6-9
	c-1-1-3-1-5,0c-2,3-4,5-6,9c-8,13-20,34-90,34c-1,0-3,1-3,2l-10,42c-18,1-26,19-26,36c0,16,8,34,26,36c0,3,1,5,1,8
	C389,524,364,543,339,548z M394,486c0-2-2-3-4-3c-14,0-21-15-21-29s7-30,21-30c2,0,3-1,4-2l10-41c71-1,85-24,93-38c1-1,2-3,3-4
	c1,1,1,3,2,4c9,14,22,37,93,38l11,41c0,1,1,2,3,2c14,0,21,16,21,30s-7,29-21,29c-2,0-3,1-3,3c-2,9-11,48-53,79c-1,0-2,1-2,1
	c-14,10-30,19-51,26c-21-7-38-16-52-26l-1-1C404,534,395,495,394,486z M399,592c15-7,31-13,46-20c23,16,46,24,54,27c0,0,0,0,1,0
	c0,0,0,0,1,0c8-3,30-11,53-27c16,7,32,14,47,20c12,5,23,10,34,14c-2,30-34,48-68,67c-28,17-58,33-67,58c-10-25-39-41-68-57
	c-34-20-66-38-67-68C376,601,388,597,399,592z M253,716c-1-52,45-80,105-107c3,32,37,52,71,70c33,20,65,38,67,66H252L253,716z
	 M748,745H503c3-28,34-46,68-66c33-19,67-38,70-70c61,27,107,55,107,105V745z M453,424h3h3c6,0,12,0,14,3c1,1,1,2,1,5c0,2,2,3,4,3
	s3-1,3-3c0-5-1-8-3-10c-5-4-11-4-19-4h-3h-3c-8,0-14,0-19,4c-2,2-3,5-3,10c0,2,1,3,3,3s4-1,4-3c0-3,0-4,1-5C441,424,447,424,453,424
	z M522,435c1,0,3-1,3-3c0-3,0-4,1-5c3-3,8-3,14-3h3h3c6,0,12,0,14,3c1,1,2,2,2,5c0,2,1,3,3,3s4-1,4-3c0-5-2-8-4-10c-4-4-11-4-19-4
	h-3h-2c-8,0-15,0-19,4c-3,2-4,5-4,10C518,434,520,435,522,435z"/>
</svg>
